<svg width="15" height="16" viewBox="0 0 15 16" fill="none" xmlns="http://www.w3.org/2000/svg">
<g clip-path="url(#clip0_56_12753)">
<rect y="0.5" width="15" height="15" rx="7.5" fill="#F93939"/>
<path d="M19 0.5H2C0.89543 0.5 0 1.39543 0 2.5V13.5C0 14.6046 0.89543 15.5 2 15.5H19C20.1046 15.5 21 14.6046 21 13.5V2.5C21 1.39543 20.1046 0.5 19 0.5Z" fill="#F93939"/>
<path fill-rule="evenodd" clip-rule="evenodd" d="M5.49812 7.73L4.02812 8.503L4.30812 6.866L3.12012 5.706L4.76312 5.469L5.49812 3.979L6.23212 5.469L7.87512 5.706L6.68512 6.866L6.96712 8.502L5.49812 7.73ZM9.00012 3.5H10.0001V4.5H9.00012V3.5ZM10.0001 5.5H11.0001V6.5H10.0001V5.5ZM10.0001 7.5H11.0001V8.5H10.0001V7.5ZM9.00012 9.5H10.0001V10.5H9.00012V9.5Z" fill="#FFDA2C"/>
</g>
<defs>
<clipPath id="clip0_56_12753">
<rect y="0.5" width="15" height="15" rx="7.5" fill="white"/>
</clipPath>
</defs>
</svg>
