<svg width="15" height="16" viewBox="0 0 15 16" fill="none" xmlns="http://www.w3.org/2000/svg">
<g clip-path="url(#clip0_56_12777)">
<rect y="0.5" width="15" height="15" rx="7.5" fill="#1A47B8"/>
<path fill-rule="evenodd" clip-rule="evenodd" d="M-0.766028 0.5H-3V3L15.7539 15.5L18 15.5V13L-0.766028 0.5Z" fill="white"/>
<path d="M-2.2549 0.5L18 14.0354V15.5H17.2724L-3 1.95056V0.5H-2.2549Z" fill="#F93939"/>
<path fill-rule="evenodd" clip-rule="evenodd" d="M16 0.5H18V3C18 3 5.0098 11.3281 -1 15.5H-3V13L16 0.5Z" fill="white"/>
<path d="M18 0.5H17.3218L-3 14.0471V15.5H-2.2549L18 1.96151V0.5Z" fill="#F93939"/>
<path fill-rule="evenodd" clip-rule="evenodd" d="M4.63708 0.5H10.3804V5.12682H18V10.8701H10.3804V15.5H4.63708V10.8701H-3V5.12682H4.63708V0.5Z" fill="white"/>
<path fill-rule="evenodd" clip-rule="evenodd" d="M5.8421 0.5H9.15789V6.26923H18V9.73077H9.15789V15.5H5.8421V9.73077H-3V6.26923H5.8421V0.5Z" fill="#F93939"/>
</g>
<defs>
<clipPath id="clip0_56_12777">
<rect y="0.5" width="15" height="15" rx="7.5" fill="white"/>
</clipPath>
</defs>
</svg>
